<svg width="156" height="42" viewBox="0 0 156 42" fill="none" xmlns="http://www.w3.org/2000/svg">
<path d="M1.09532 42C-0.88841 40.6382 0.268766 39.2537 1.09532 38.7317L36.8159 38.6636C38.9604 39.9709 37.7094 41.4326 36.8159 42H1.09532Z" fill="#849CDE"/>
<path d="M10.5745 24.3649C5.74922 29.5941 5.97262 36.167 6.68748 38.7998H31.6181C32.5296 31.2283 29.2936 25.9936 27.5616 24.3227C24.5536 20.7519 21.0421 20.2037 24.3132 18.2369C30.3716 13.1166 31.6628 7.52419 31.5511 5.36803V2.71255L28.4012 3.39345H9.70325L6.41938 2.71255V5.36803C6.31215 10.5973 11.2 16.1261 13.6573 18.2369C16.204 20.1434 15.3998 19.1356 10.5745 24.3649Z" fill="#849CDE"/>
<path d="M18.1892 17.7602C10.6833 12.3131 9.45454 6.0716 9.74495 3.5977V3.39343H28.6197V3.5977C29.0218 10.1343 23.4816 15.2636 20.1084 17.7602V21.437C24.5986 26.3395 29.0218 26.748 28.5526 38.7317H10.0557C7.17394 28.9269 16.7147 23.0031 18.1892 21.437L18.1892 17.7602Z" fill="white"/>
<path d="M20.1055 17.7333C21.7303 16.668 24.0948 14.6666 25.3999 12.8C26.6062 11.2 27.4104 9.93331 27.4774 9.46664" stroke="#849CDE"/>
<path d="M14.0738 38.6585C13.5912 37.8585 18.1618 26.0222 18.1618 25C19.7032 21.5334 20.7234 27.5629 22.6521 31.4C23.9255 33.9333 24.5286 36 24.8637 36.8C25.115 37.4 25.5338 37.5696 25.4668 38.6585H14.0738Z" fill="#29CBE3"/>
<path d="M1.09532 3.33637C-0.88841 1.97458 0.268766 0.590106 1.09532 0.0680891L36.8159 0C38.9604 1.30731 37.7094 2.76896 36.8159 3.33637H1.09532Z" fill="#849CDE"/>
<path d="M24.4619 13.8H13.873C14.302 14.6 16.9112 16.7556 18.1622 17.7334V20.3333C18.9664 20.8667 19.793 20.6 20.1057 20.4V17.6667C20.4274 17.8267 23.1439 15.1556 24.4619 13.8Z" fill="#29CBE3" stroke="#29CBE3"/>
<path d="M64.7938 24.375C64.7938 23.9375 64.8146 23.5104 64.8563 23.0938C64.9083 22.6771 65.0177 22.3073 65.1844 21.9844C65.351 21.651 65.5906 21.3854 65.9031 21.1875C66.2156 20.9792 66.6375 20.875 67.1688 20.875C67.7 20.875 68.1219 20.9792 68.4344 21.1875C68.7469 21.3854 68.9865 21.651 69.1531 21.9844C69.3198 22.3073 69.424 22.6771 69.4656 23.0938C69.5177 23.5104 69.5438 23.9375 69.5438 24.375V33C69.5438 33.4375 69.5177 33.8698 69.4656 34.2969C69.424 34.7135 69.3198 35.0885 69.1531 35.4219C68.9865 35.7448 68.7469 36.0052 68.4344 36.2031C68.1219 36.401 67.7 36.5 67.1688 36.5C66.6375 36.5 66.2156 36.401 65.9031 36.2031C65.5906 36.0052 65.351 35.7448 65.1844 35.4219C65.0177 35.0885 64.9083 34.7135 64.8563 34.2969C64.8146 33.8698 64.7938 33.4375 64.7938 33V24.375ZM69.575 17C69.575 17.8021 69.3667 18.401 68.95 18.7969C68.5333 19.1823 67.95 19.375 67.2 19.375C66.45 19.375 65.8667 19.1823 65.45 18.7969C65.0333 18.401 64.825 17.8021 64.825 17C64.825 16.1667 65.0333 15.5625 65.45 15.1875C65.8667 14.8125 66.45 14.625 67.2 14.625C68.0021 14.625 68.5958 14.8125 68.9813 15.1875C69.3771 15.5625 69.575 16.1667 69.575 17ZM82.6 20.875V18.125C82.6 17.6875 82.6208 17.2604 82.6625 16.8438C82.7146 16.4271 82.824 16.0573 82.9906 15.7344C83.1573 15.401 83.3969 15.1354 83.7094 14.9375C84.0219 14.7292 84.4438 14.625 84.975 14.625C85.4958 14.625 85.9125 14.7292 86.225 14.9375C86.5375 15.1354 86.7719 15.401 86.9281 15.7344C87.0948 16.0573 87.199 16.4271 87.2406 16.8438C87.2927 17.2604 87.3188 17.6875 87.3188 18.125V20.875H88.6C88.8708 20.875 89.1417 20.8906 89.4125 20.9219C89.6833 20.9427 89.9229 21.0156 90.1313 21.1406C90.35 21.2656 90.5219 21.4531 90.6469 21.7031C90.7823 21.9531 90.85 22.3021 90.85 22.75C90.85 23.1771 90.7823 23.5156 90.6469 23.7656C90.5219 24.0156 90.35 24.2031 90.1313 24.3281C89.9229 24.4531 89.6833 24.5365 89.4125 24.5781C89.1417 24.6094 88.8708 24.625 88.6 24.625H87.3188V30.0938C87.3188 30.3021 87.324 30.526 87.3344 30.7656C87.3552 30.9948 87.4125 31.2083 87.5063 31.4062C87.6 31.6042 87.7406 31.7708 87.9281 31.9062C88.1156 32.0312 88.3813 32.0938 88.725 32.0938C89.1 32.0938 89.4177 32.125 89.6781 32.1875C89.949 32.2396 90.1677 32.3385 90.3344 32.4844C90.5115 32.6302 90.6417 32.8333 90.725 33.0938C90.8083 33.3542 90.85 33.6875 90.85 34.0938C90.85 34.5104 90.751 34.8698 90.5531 35.1719C90.3656 35.474 90.1104 35.724 89.7875 35.9219C89.4646 36.1198 89.0896 36.2656 88.6625 36.3594C88.2354 36.4531 87.7875 36.5 87.3188 36.5C86.5792 36.5 85.9438 36.4219 85.4125 36.2656C84.8917 36.1094 84.4542 35.8906 84.1 35.6094C83.7563 35.3177 83.4802 34.974 83.2719 34.5781C83.074 34.1719 82.9229 33.7188 82.8188 33.2188C82.725 32.7188 82.6625 32.1823 82.6313 31.6094C82.6104 31.026 82.6 30.4167 82.6 29.7812V24.625H81.725C81.4542 24.625 81.1833 24.6094 80.9125 24.5781C80.6521 24.5365 80.4177 24.4531 80.2094 24.3281C80.001 24.2031 79.8292 24.0156 79.6938 23.7656C79.5688 23.5156 79.5063 23.1771 79.5063 22.75C79.5063 22.3021 79.5688 21.9531 79.6938 21.7031C79.8292 21.4531 80.001 21.2656 80.2094 21.1406C80.4177 21.0156 80.6521 20.9427 80.9125 20.9219C81.1833 20.8906 81.4542 20.875 81.725 20.875H82.6ZM113.188 27.5938C113.188 27.7604 113.177 27.9583 113.156 28.1875C113.135 28.4062 113.052 28.6198 112.906 28.8281C112.771 29.026 112.552 29.1979 112.25 29.3438C111.948 29.4896 111.521 29.5625 110.969 29.5625H104.75V31.0625C104.75 31.3125 104.781 31.5729 104.844 31.8438C104.906 32.1146 105.01 32.3646 105.156 32.5938C105.312 32.8229 105.516 33.0104 105.766 33.1562C106.016 33.3021 106.323 33.375 106.688 33.375C107.104 33.375 107.422 33.3281 107.641 33.2344C107.87 33.1302 108.047 33.0052 108.172 32.8594C108.307 32.7135 108.427 32.5573 108.531 32.3906C108.635 32.224 108.771 32.0677 108.938 31.9219C109.115 31.776 109.354 31.6562 109.656 31.5625C109.969 31.4583 110.396 31.4062 110.938 31.4062C111.198 31.4062 111.448 31.4271 111.688 31.4688C111.938 31.5104 112.156 31.5885 112.344 31.7031C112.531 31.8177 112.682 31.9792 112.797 32.1875C112.911 32.3854 112.969 32.6458 112.969 32.9688C112.969 33.6458 112.755 34.2135 112.328 34.6719C111.901 35.1198 111.365 35.4792 110.719 35.75C110.073 36.0208 109.37 36.2135 108.609 36.3281C107.859 36.4427 107.156 36.5 106.5 36.5C105.635 36.4896 104.812 36.3802 104.031 36.1719C103.25 35.9635 102.557 35.6302 101.953 35.1719C101.359 34.7135 100.885 34.1146 100.531 33.375C100.177 32.6354 100 31.7292 100 30.6562V27C100 26.0104 100.115 25.1719 100.344 24.4844C100.583 23.7969 100.891 23.224 101.266 22.7656C101.641 22.3073 102.062 21.9531 102.531 21.7031C103 21.4427 103.474 21.25 103.953 21.125C104.432 21 104.885 20.9219 105.312 20.8906C105.75 20.8594 106.125 20.8438 106.438 20.8438C107.49 20.8438 108.385 20.9375 109.125 21.125C109.875 21.3125 110.5 21.5573 111 21.8594C111.5 22.1615 111.896 22.5104 112.188 22.9062C112.479 23.3021 112.698 23.7135 112.844 24.1406C112.99 24.5573 113.083 24.9844 113.125 25.4219C113.167 25.849 113.188 26.25 113.188 26.625V27.5938ZM104.75 27.2188H108.656C108.656 26.7292 108.641 26.2969 108.609 25.9219C108.589 25.5365 108.51 25.2135 108.375 24.9531C108.25 24.6927 108.047 24.4948 107.766 24.3594C107.495 24.224 107.104 24.1562 106.594 24.1562C106.167 24.1562 105.828 24.224 105.578 24.3594C105.339 24.4948 105.156 24.6667 105.031 24.875C104.906 25.0729 104.828 25.2865 104.797 25.5156C104.766 25.7448 104.75 25.9479 104.75 26.125V27.2188ZM132.931 23.2188C132.931 24.0312 132.728 24.625 132.322 25C131.926 25.375 131.358 25.5625 130.619 25.5625C130.515 25.5625 130.364 25.5729 130.166 25.5938C129.978 25.6042 129.775 25.6458 129.556 25.7188C129.338 25.7812 129.114 25.8802 128.884 26.0156C128.666 26.1406 128.463 26.3177 128.275 26.5469C128.088 26.7656 127.936 27.0469 127.822 27.3906C127.707 27.7344 127.65 28.1458 127.65 28.625V33.0938C127.65 33.5208 127.624 33.9375 127.572 34.3438C127.53 34.75 127.426 35.1146 127.259 35.4375C127.093 35.75 126.853 36.0052 126.541 36.2031C126.228 36.401 125.806 36.5 125.275 36.5C124.754 36.5 124.343 36.401 124.041 36.2031C123.739 36.0052 123.504 35.75 123.338 35.4375C123.181 35.1146 123.077 34.75 123.025 34.3438C122.983 33.9375 122.963 33.5208 122.963 33.0938V24.3438C122.963 23.9062 122.983 23.4844 123.025 23.0781C123.077 22.6615 123.181 22.2917 123.338 21.9688C123.504 21.6458 123.739 21.3906 124.041 21.2031C124.343 21.0052 124.754 20.9062 125.275 20.9062C125.806 20.9062 126.213 21.026 126.494 21.2656C126.785 21.4948 126.999 21.7969 127.134 22.1719C127.27 22.5365 127.348 22.9479 127.369 23.4062C127.39 23.8542 127.4 24.2917 127.4 24.7188H127.65C127.796 24.1354 127.989 23.6094 128.228 23.1406C128.468 22.6615 128.733 22.2604 129.025 21.9375C129.317 21.6042 129.629 21.349 129.963 21.1719C130.296 20.9948 130.629 20.9062 130.963 20.9062C131.369 20.9062 131.697 20.9531 131.947 21.0469C132.207 21.1302 132.41 21.2656 132.556 21.4531C132.702 21.6406 132.801 21.8802 132.853 22.1719C132.905 22.4635 132.931 22.8125 132.931 23.2188ZM153.925 32.9688C153.925 33.4062 153.909 33.8385 153.878 34.2656C153.847 34.6823 153.753 35.0573 153.597 35.3906C153.441 35.724 153.206 35.9948 152.894 36.2031C152.581 36.401 152.144 36.5 151.581 36.5C151.008 36.5 150.56 36.4062 150.238 36.2188C149.915 36.0208 149.675 35.7865 149.519 35.5156C149.363 35.2344 149.264 34.9427 149.222 34.6406C149.191 34.3385 149.175 34.0833 149.175 33.875C149.081 34.1771 148.946 34.4844 148.769 34.7969C148.602 35.1094 148.383 35.3906 148.113 35.6406C147.842 35.8906 147.514 36.099 147.128 36.2656C146.753 36.4219 146.31 36.5 145.8 36.5C145.227 36.5 144.654 36.4062 144.081 36.2188C143.508 36.0312 142.993 35.7188 142.534 35.2812C142.076 34.8438 141.701 34.276 141.409 33.5781C141.128 32.8698 140.988 32 140.988 30.9688V26.4375C140.988 25.3958 141.128 24.526 141.409 23.8281C141.701 23.1198 142.076 22.5521 142.534 22.125C142.993 21.6875 143.508 21.375 144.081 21.1875C144.654 21 145.227 20.9062 145.8 20.9062C146.31 20.9062 146.753 20.9844 147.128 21.1406C147.514 21.2969 147.842 21.5 148.113 21.75C148.383 22 148.602 22.2812 148.769 22.5938C148.946 22.9062 149.081 23.2188 149.175 23.5312C149.175 23.0104 149.248 22.5781 149.394 22.2344C149.54 21.8906 149.727 21.6198 149.956 21.4219C150.185 21.2135 150.441 21.0729 150.722 21C151.014 20.9167 151.3 20.875 151.581 20.875C152.102 20.875 152.519 20.9792 152.831 21.1875C153.144 21.3854 153.378 21.651 153.534 21.9844C153.701 22.3073 153.805 22.6875 153.847 23.125C153.899 23.5521 153.925 23.9896 153.925 24.4375V32.9688ZM145.8 30.5625C145.8 30.8438 145.81 31.1198 145.831 31.3906C145.852 31.6615 145.909 31.9062 146.003 32.125C146.097 32.3438 146.232 32.5208 146.409 32.6562C146.597 32.7812 146.852 32.8438 147.175 32.8438C147.581 32.8438 147.909 32.7552 148.159 32.5781C148.42 32.3906 148.623 32.1094 148.769 31.7344C148.915 31.349 149.014 30.8698 149.066 30.2969C149.128 29.7135 149.165 29.0208 149.175 28.2188C149.175 27.8958 149.144 27.526 149.081 27.1094C149.029 26.6823 148.93 26.2812 148.784 25.9062C148.639 25.5312 148.435 25.2135 148.175 24.9531C147.915 24.6927 147.581 24.5625 147.175 24.5625C146.852 24.5625 146.597 24.6302 146.409 24.7656C146.232 24.8906 146.097 25.0573 146.003 25.2656C145.909 25.474 145.852 25.7135 145.831 25.9844C145.81 26.2448 145.8 26.5104 145.8 26.7812V30.5625Z" fill="#849CDE"/>
</svg>
