<svg width="38" height="43" viewBox="0 0 38 43" fill="none" xmlns="http://www.w3.org/2000/svg">
<path d="M1.09529 42.199C-0.888385 40.8307 0.268758 39.4397 1.09529 38.9152L36.8148 38.8468C38.9593 40.1603 37.7084 41.6289 36.8148 42.199H1.09529Z" fill="#192546"/>
<path d="M10.5744 24.4803C5.74924 29.7343 5.97263 36.3384 6.68746 38.9836H31.6174C32.5288 31.3762 29.2929 26.1167 27.561 24.4379C24.553 20.8502 21.0417 20.2994 24.3126 18.3232C30.3709 13.1787 31.6621 7.55978 31.5504 5.3934V2.72534L28.4006 3.40946H9.70316L6.41937 2.72534V5.3934C6.31215 10.6474 11.1998 16.2025 13.6571 18.3232C16.2037 20.2388 15.3995 19.2263 10.5744 24.4803Z" fill="#192546"/>
<path d="M18.1885 17.8443C10.6827 12.3714 9.45405 6.10029 9.74445 3.61466V3.40942H28.6186V3.61466C29.0207 10.1822 23.4807 15.3359 20.1076 17.8443V21.5386C24.5977 26.4642 29.0207 26.8747 28.5516 38.9152H10.0552C7.17351 29.0639 16.7141 23.112 18.1885 21.5386L18.1885 17.8443Z" fill="white"/>
<path d="M20.1055 17.8173C21.7302 16.747 24.0946 14.7361 25.3997 12.8606C26.606 11.253 27.4102 9.98035 27.4772 9.51147" stroke="#192546"/>
<path d="M14.0733 38.8416C13.5908 38.0379 18.1612 26.1455 18.1612 25.1185C19.7026 21.6354 20.7227 27.6934 22.6514 31.5488C23.9247 34.0941 24.5278 36.1706 24.8629 36.9744C25.1142 37.5772 25.533 37.7476 25.466 38.8416H14.0733Z" fill="#93AAFA"/>
<path d="M1.09627 3.35218C-0.887408 1.98394 0.269735 0.592903 1.09627 0.0684118L36.8158 0C38.9603 1.31351 37.7093 2.78208 36.8158 3.35218H1.09627Z" fill="#192546"/>
<path d="M24.4621 13.8654H13.8735C14.3024 14.6691 16.9116 16.8349 18.1626 17.8173V20.4297C18.9667 20.9655 19.7933 20.6976 20.106 20.4966V17.7503C20.4277 17.9111 23.1441 15.2273 24.4621 13.8654Z" fill="#93AAFA" stroke="#93AAFA"/>
</svg>
