<svg width="156" height="43" viewBox="0 0 156 43" fill="none" xmlns="http://www.w3.org/2000/svg">
<path d="M1.09529 42.199C-0.888385 40.8307 0.268758 39.4397 1.09529 38.9152L36.8148 38.8468C38.9593 40.1603 37.7084 41.6289 36.8148 42.199H1.09529Z" fill="#192546"/>
<path d="M10.5744 24.4803C5.74924 29.7343 5.97263 36.3384 6.68746 38.9836H31.6174C32.5288 31.3762 29.2929 26.1167 27.561 24.4379C24.553 20.8502 21.0417 20.2994 24.3126 18.3232C30.3709 13.1787 31.6621 7.55978 31.5504 5.3934V2.72534L28.4006 3.40946H9.70316L6.41937 2.72534V5.3934C6.31215 10.6474 11.1998 16.2025 13.6571 18.3232C16.2037 20.2388 15.3995 19.2263 10.5744 24.4803Z" fill="#192546"/>
<path d="M18.1885 17.8443C10.6827 12.3714 9.45405 6.10029 9.74445 3.61466V3.40942H28.6186V3.61466C29.0207 10.1822 23.4807 15.3359 20.1076 17.8443V21.5386C24.5977 26.4642 29.0207 26.8747 28.5516 38.9152H10.0552C7.17351 29.0639 16.7141 23.112 18.1885 21.5386L18.1885 17.8443Z" fill="white"/>
<path d="M20.1055 17.8173C21.7302 16.747 24.0946 14.7361 25.3997 12.8606C26.606 11.253 27.4102 9.98035 27.4772 9.51147" stroke="#192546"/>
<path d="M14.0733 38.8416C13.5908 38.0379 18.1612 26.1455 18.1612 25.1185C19.7026 21.6354 20.7227 27.6934 22.6514 31.5488C23.9247 34.0941 24.5278 36.1706 24.8629 36.9744C25.1142 37.5772 25.533 37.7476 25.466 38.8416H14.0733Z" fill="#93AAFA"/>
<path d="M1.09627 3.35218C-0.887408 1.98394 0.269735 0.592903 1.09627 0.0684118L36.8158 0C38.9603 1.31351 37.7093 2.78208 36.8158 3.35218H1.09627Z" fill="#192546"/>
<path d="M24.4621 13.8654H13.8735C14.3024 14.6691 16.9116 16.8349 18.1626 17.8173V20.4297C18.9667 20.9655 19.7933 20.6976 20.106 20.4966V17.7503C20.4277 17.9111 23.1441 15.2273 24.4621 13.8654Z" fill="#93AAFA" stroke="#93AAFA"/>
<path d="M64.7933 24.4745C64.7933 24.037 64.8141 23.6099 64.8558 23.1932C64.9078 22.7766 65.0172 22.4068 65.1839 22.0839C65.3506 21.7505 65.5901 21.4849 65.9026 21.287C66.2151 21.0787 66.637 20.9745 67.1683 20.9745C67.6995 20.9745 68.1214 21.0787 68.4339 21.287C68.7464 21.4849 68.986 21.7505 69.1526 22.0839C69.3193 22.4068 69.4235 22.7766 69.4651 23.1932C69.5172 23.6099 69.5433 24.037 69.5433 24.4745V33.0995C69.5433 33.537 69.5172 33.9693 69.4651 34.3964C69.4235 34.813 69.3193 35.188 69.1526 35.5214C68.986 35.8443 68.7464 36.1047 68.4339 36.3026C68.1214 36.5005 67.6995 36.5995 67.1683 36.5995C66.637 36.5995 66.2151 36.5005 65.9026 36.3026C65.5901 36.1047 65.3506 35.8443 65.1839 35.5214C65.0172 35.188 64.9078 34.813 64.8558 34.3964C64.8141 33.9693 64.7933 33.537 64.7933 33.0995V24.4745ZM69.5745 17.0995C69.5745 17.9016 69.3662 18.5005 68.9495 18.8964C68.5328 19.2818 67.9495 19.4745 67.1995 19.4745C66.4495 19.4745 65.8662 19.2818 65.4495 18.8964C65.0328 18.5005 64.8245 17.9016 64.8245 17.0995C64.8245 16.2662 65.0328 15.662 65.4495 15.287C65.8662 14.912 66.4495 14.7245 67.1995 14.7245C68.0016 14.7245 68.5953 14.912 68.9808 15.287C69.3766 15.662 69.5745 16.2662 69.5745 17.0995ZM82.5995 20.9745V18.2245C82.5995 17.787 82.6203 17.3599 82.662 16.9432C82.7141 16.5266 82.8235 16.1568 82.9901 15.8339C83.1568 15.5005 83.3964 15.2349 83.7089 15.037C84.0214 14.8287 84.4433 14.7245 84.9745 14.7245C85.4953 14.7245 85.912 14.8287 86.2245 15.037C86.537 15.2349 86.7714 15.5005 86.9276 15.8339C87.0943 16.1568 87.1985 16.5266 87.2401 16.9432C87.2922 17.3599 87.3183 17.787 87.3183 18.2245V20.9745H88.5995C88.8703 20.9745 89.1412 20.9901 89.412 21.0214C89.6828 21.0422 89.9224 21.1151 90.1308 21.2401C90.3495 21.3651 90.5214 21.5526 90.6464 21.8026C90.7818 22.0526 90.8495 22.4016 90.8495 22.8495C90.8495 23.2766 90.7818 23.6151 90.6464 23.8651C90.5214 24.1151 90.3495 24.3026 90.1308 24.4276C89.9224 24.5526 89.6828 24.6359 89.412 24.6776C89.1412 24.7089 88.8703 24.7245 88.5995 24.7245H87.3183V30.1932C87.3183 30.4016 87.3235 30.6255 87.3339 30.8651C87.3547 31.0943 87.412 31.3078 87.5058 31.5057C87.5995 31.7037 87.7401 31.8703 87.9276 32.0057C88.1151 32.1307 88.3808 32.1932 88.7245 32.1932C89.0995 32.1932 89.4172 32.2245 89.6776 32.287C89.9485 32.3391 90.1672 32.438 90.3339 32.5839C90.511 32.7297 90.6412 32.9328 90.7245 33.1932C90.8078 33.4537 90.8495 33.787 90.8495 34.1932C90.8495 34.6099 90.7506 34.9693 90.5526 35.2714C90.3651 35.5734 90.1099 35.8234 89.787 36.0214C89.4641 36.2193 89.0891 36.3651 88.662 36.4589C88.2349 36.5526 87.787 36.5995 87.3183 36.5995C86.5787 36.5995 85.9433 36.5214 85.412 36.3651C84.8912 36.2089 84.4537 35.9901 84.0995 35.7089C83.7558 35.4172 83.4797 35.0734 83.2714 34.6776C83.0735 34.2714 82.9224 33.8182 82.8183 33.3182C82.7245 32.8182 82.662 32.2818 82.6308 31.7089C82.6099 31.1255 82.5995 30.5162 82.5995 29.8807V24.7245H81.7245C81.4537 24.7245 81.1828 24.7089 80.912 24.6776C80.6516 24.6359 80.4172 24.5526 80.2089 24.4276C80.0006 24.3026 79.8287 24.1151 79.6933 23.8651C79.5683 23.6151 79.5058 23.2766 79.5058 22.8495C79.5058 22.4016 79.5683 22.0526 79.6933 21.8026C79.8287 21.5526 80.0006 21.3651 80.2089 21.2401C80.4172 21.1151 80.6516 21.0422 80.912 21.0214C81.1828 20.9901 81.4537 20.9745 81.7245 20.9745H82.5995ZM113.187 27.6932C113.187 27.8599 113.177 28.0578 113.156 28.287C113.135 28.5057 113.052 28.7193 112.906 28.9276C112.77 29.1255 112.552 29.2974 112.25 29.4432C111.947 29.5891 111.52 29.662 110.968 29.662H104.75V31.162C104.75 31.412 104.781 31.6724 104.843 31.9432C104.906 32.2141 105.01 32.4641 105.156 32.6932C105.312 32.9224 105.515 33.1099 105.765 33.2557C106.015 33.4016 106.322 33.4745 106.687 33.4745C107.104 33.4745 107.421 33.4276 107.64 33.3339C107.869 33.2297 108.046 33.1047 108.171 32.9589C108.307 32.813 108.427 32.6568 108.531 32.4901C108.635 32.3234 108.77 32.1672 108.937 32.0214C109.114 31.8755 109.354 31.7557 109.656 31.662C109.968 31.5578 110.395 31.5057 110.937 31.5057C111.197 31.5057 111.447 31.5266 111.687 31.5682C111.937 31.6099 112.156 31.688 112.343 31.8026C112.531 31.9172 112.682 32.0787 112.796 32.287C112.911 32.4849 112.968 32.7453 112.968 33.0682C112.968 33.7453 112.755 34.313 112.328 34.7714C111.901 35.2193 111.364 35.5787 110.718 35.8495C110.072 36.1203 109.369 36.313 108.609 36.4276C107.859 36.5422 107.156 36.5995 106.5 36.5995C105.635 36.5891 104.812 36.4797 104.031 36.2714C103.25 36.063 102.557 35.7297 101.953 35.2714C101.359 34.813 100.885 34.2141 100.531 33.4745C100.177 32.7349 99.9995 31.8287 99.9995 30.7557V27.0995C99.9995 26.1099 100.114 25.2714 100.343 24.5839C100.583 23.8964 100.89 23.3234 101.265 22.8651C101.64 22.4068 102.062 22.0526 102.531 21.8026C103 21.5422 103.473 21.3495 103.953 21.2245C104.432 21.0995 104.885 21.0214 105.312 20.9901C105.75 20.9589 106.125 20.9432 106.437 20.9432C107.489 20.9432 108.385 21.037 109.125 21.2245C109.875 21.412 110.5 21.6568 111 21.9589C111.5 22.2609 111.895 22.6099 112.187 23.0057C112.479 23.4016 112.697 23.813 112.843 24.2401C112.989 24.6568 113.083 25.0839 113.125 25.5214C113.166 25.9484 113.187 26.3495 113.187 26.7245V27.6932ZM104.75 27.3182H108.656C108.656 26.8287 108.64 26.3964 108.609 26.0214C108.588 25.6359 108.51 25.313 108.375 25.0526C108.25 24.7922 108.046 24.5943 107.765 24.4589C107.494 24.3234 107.104 24.2557 106.593 24.2557C106.166 24.2557 105.828 24.3234 105.578 24.4589C105.338 24.5943 105.156 24.7662 105.031 24.9745C104.906 25.1724 104.828 25.3859 104.796 25.6151C104.765 25.8443 104.75 26.0474 104.75 26.2245V27.3182ZM132.931 23.3182C132.931 24.1307 132.728 24.7245 132.321 25.0995C131.926 25.4745 131.358 25.662 130.618 25.662C130.514 25.662 130.363 25.6724 130.165 25.6932C129.978 25.7037 129.775 25.7453 129.556 25.8182C129.337 25.8807 129.113 25.9797 128.884 26.1151C128.665 26.2401 128.462 26.4172 128.275 26.6464C128.087 26.8651 127.936 27.1464 127.821 27.4901C127.707 27.8339 127.65 28.2453 127.65 28.7245V33.1932C127.65 33.6203 127.623 34.037 127.571 34.4432C127.53 34.8495 127.426 35.2141 127.259 35.537C127.092 35.8495 126.853 36.1047 126.54 36.3026C126.228 36.5005 125.806 36.5995 125.275 36.5995C124.754 36.5995 124.342 36.5005 124.04 36.3026C123.738 36.1047 123.504 35.8495 123.337 35.537C123.181 35.2141 123.077 34.8495 123.025 34.4432C122.983 34.037 122.962 33.6203 122.962 33.1932V24.4432C122.962 24.0057 122.983 23.5839 123.025 23.1776C123.077 22.7609 123.181 22.3912 123.337 22.0682C123.504 21.7453 123.738 21.4901 124.04 21.3026C124.342 21.1047 124.754 21.0057 125.275 21.0057C125.806 21.0057 126.212 21.1255 126.493 21.3651C126.785 21.5943 126.998 21.8964 127.134 22.2714C127.269 22.6359 127.347 23.0474 127.368 23.5057C127.389 23.9537 127.4 24.3912 127.4 24.8182H127.65C127.795 24.2349 127.988 23.7089 128.228 23.2401C128.467 22.7609 128.733 22.3599 129.025 22.037C129.316 21.7037 129.629 21.4484 129.962 21.2714C130.295 21.0943 130.629 21.0057 130.962 21.0057C131.368 21.0057 131.696 21.0526 131.946 21.1464C132.207 21.2297 132.41 21.3651 132.556 21.5526C132.702 21.7401 132.801 21.9797 132.853 22.2714C132.905 22.563 132.931 22.912 132.931 23.3182ZM153.925 33.0682C153.925 33.5057 153.909 33.938 153.878 34.3651C153.846 34.7818 153.753 35.1568 153.596 35.4901C153.44 35.8234 153.206 36.0943 152.893 36.3026C152.581 36.5005 152.143 36.5995 151.581 36.5995C151.008 36.5995 150.56 36.5057 150.237 36.3182C149.914 36.1203 149.675 35.8859 149.518 35.6151C149.362 35.3339 149.263 35.0422 149.221 34.7401C149.19 34.438 149.175 34.1828 149.175 33.9745C149.081 34.2766 148.945 34.5839 148.768 34.8964C148.602 35.2089 148.383 35.4901 148.112 35.7401C147.841 35.9901 147.513 36.1984 147.128 36.3651C146.753 36.5214 146.31 36.5995 145.8 36.5995C145.227 36.5995 144.654 36.5057 144.081 36.3182C143.508 36.1307 142.992 35.8182 142.534 35.3807C142.076 34.9432 141.701 34.3755 141.409 33.6776C141.128 32.9693 140.987 32.0995 140.987 31.0682V26.537C140.987 25.4953 141.128 24.6255 141.409 23.9276C141.701 23.2193 142.076 22.6516 142.534 22.2245C142.992 21.787 143.508 21.4745 144.081 21.287C144.654 21.0995 145.227 21.0057 145.8 21.0057C146.31 21.0057 146.753 21.0839 147.128 21.2401C147.513 21.3964 147.841 21.5995 148.112 21.8495C148.383 22.0995 148.602 22.3807 148.768 22.6932C148.945 23.0057 149.081 23.3182 149.175 23.6307C149.175 23.1099 149.247 22.6776 149.393 22.3339C149.539 21.9901 149.727 21.7193 149.956 21.5214C150.185 21.313 150.44 21.1724 150.721 21.0995C151.013 21.0162 151.3 20.9745 151.581 20.9745C152.102 20.9745 152.518 21.0787 152.831 21.287C153.143 21.4849 153.378 21.7505 153.534 22.0839C153.701 22.4068 153.805 22.787 153.846 23.2245C153.898 23.6516 153.925 24.0891 153.925 24.537V33.0682ZM145.8 30.662C145.8 30.9432 145.81 31.2193 145.831 31.4901C145.852 31.7609 145.909 32.0057 146.003 32.2245C146.096 32.4432 146.232 32.6203 146.409 32.7557C146.596 32.8807 146.852 32.9432 147.175 32.9432C147.581 32.9432 147.909 32.8547 148.159 32.6776C148.419 32.4901 148.622 32.2089 148.768 31.8339C148.914 31.4484 149.013 30.9693 149.065 30.3964C149.128 29.813 149.164 29.1203 149.175 28.3182C149.175 27.9953 149.143 27.6255 149.081 27.2089C149.029 26.7818 148.93 26.3807 148.784 26.0057C148.638 25.6307 148.435 25.313 148.175 25.0526C147.914 24.7922 147.581 24.662 147.175 24.662C146.852 24.662 146.596 24.7297 146.409 24.8651C146.232 24.9901 146.096 25.1568 146.003 25.3651C145.909 25.5734 145.852 25.813 145.831 26.0839C145.81 26.3443 145.8 26.6099 145.8 26.8807V30.662Z" fill="#17254A"/>
</svg>
