<svg width="38" height="42" viewBox="0 0 38 42" fill="none" xmlns="http://www.w3.org/2000/svg">
<path d="M1.09532 42C-0.88841 40.6382 0.268766 39.2537 1.09532 38.7317L36.8159 38.6636C38.9604 39.9709 37.7094 41.4326 36.8159 42H1.09532Z" fill="#849CDE"/>
<path d="M10.5745 24.3649C5.74922 29.5941 5.97262 36.167 6.68748 38.7998H31.6181C32.5296 31.2283 29.2936 25.9936 27.5616 24.3227C24.5536 20.7519 21.0421 20.2037 24.3132 18.2369C30.3716 13.1166 31.6628 7.52419 31.5511 5.36803V2.71255L28.4012 3.39345H9.70325L6.41938 2.71255V5.36803C6.31215 10.5973 11.2 16.1261 13.6573 18.2369C16.204 20.1434 15.3998 19.1356 10.5745 24.3649Z" fill="#849CDE"/>
<path d="M18.1892 17.7602C10.6833 12.3131 9.45454 6.0716 9.74495 3.5977V3.39343H28.6197V3.5977C29.0218 10.1343 23.4816 15.2636 20.1084 17.7602V21.437C24.5986 26.3395 29.0218 26.748 28.5526 38.7317H10.0557C7.17394 28.9269 16.7147 23.0031 18.1892 21.437L18.1892 17.7602Z" fill="white"/>
<path d="M20.1055 17.7333C21.7303 16.668 24.0948 14.6666 25.3999 12.8C26.6062 11.2 27.4104 9.93331 27.4774 9.46664" stroke="#849CDE"/>
<path d="M14.0738 38.6585C13.5912 37.8585 18.1618 26.0222 18.1618 25C19.7032 21.5334 20.7234 27.5629 22.6521 31.4C23.9255 33.9333 24.5286 36 24.8637 36.8C25.115 37.4 25.5338 37.5696 25.4668 38.6585H14.0738Z" fill="#29CBE3"/>
<path d="M1.09532 3.33637C-0.88841 1.97458 0.268766 0.590106 1.09532 0.0680891L36.8159 0C38.9604 1.30731 37.7094 2.76896 36.8159 3.33637H1.09532Z" fill="#849CDE"/>
<path d="M24.4619 13.8H13.873C14.302 14.6 16.9112 16.7556 18.1622 17.7334V20.3333C18.9664 20.8667 19.793 20.6 20.1057 20.4V17.6667C20.4274 17.8267 23.1439 15.1556 24.4619 13.8Z" fill="#29CBE3" stroke="#29CBE3"/>
</svg>
