<svg width="250" height="186" viewBox="0 0 250 186" fill="none" xmlns="http://www.w3.org/2000/svg">
<path d="M86.6677 92.4726C82.3208 89.4743 84.8565 86.4261 86.6677 85.2767L164.941 85.1268C169.641 88.0052 166.9 91.2233 164.941 92.4726H86.6677Z" fill="#849CDE"/>
<path d="M107.439 53.6449C96.8655 65.1583 97.3551 79.6299 98.9215 85.4266H153.552C155.549 68.7562 148.458 57.2309 144.663 53.552C138.071 45.69 130.377 44.4831 137.544 40.1526C150.82 28.8791 153.649 16.5662 153.405 11.8189V5.97229L146.502 7.47143H105.53L98.334 5.97229V11.8189C98.0991 23.3323 108.81 35.5053 114.194 40.1526C119.775 44.3502 118.013 42.1315 107.439 53.6449Z" fill="#849CDE"/>
<path d="M124.125 39.1032C107.678 27.1101 104.985 13.368 105.621 7.92112V7.47137H146.981V7.92112C147.862 22.3128 135.722 33.6064 128.331 39.1032V47.1985C138.17 57.9923 147.862 58.8918 146.834 85.2766H106.302C99.9877 63.6891 120.894 50.6466 124.125 47.1985L124.125 39.1032Z" fill="white"/>
<path d="M128.324 39.0439C131.885 36.6984 137.066 32.2919 139.926 28.1821C142.569 24.6593 144.332 21.8704 144.479 20.843" stroke="#849CDE"/>
<path d="M115.107 85.1155C114.05 83.3541 124.065 57.2939 124.065 55.0432C127.443 47.4106 129.678 60.6859 133.905 69.1343C136.695 74.712 138.016 79.2622 138.751 81.0236C139.301 82.3447 140.219 82.718 140.072 85.1155H115.107Z" fill="#29CBE3"/>
<path d="M86.6677 7.34578C82.3208 4.3475 84.8565 1.29925 86.6677 0.149914L164.941 0C169.641 2.87835 166.9 6.0965 164.941 7.34578H86.6677Z" fill="#849CDE"/>
<path d="M137.87 30.3839H114.667C115.607 32.1452 121.324 36.8912 124.065 39.044V44.7685C125.828 45.9427 127.639 45.3556 128.324 44.9153V38.8972C129.029 39.2495 134.982 33.3684 137.87 30.3839Z" fill="#29CBE3" stroke="#29CBE3"/>
<path d="M55.9277 133.721C55.9277 133.037 55.9603 132.37 56.0254 131.719C56.1068 131.068 56.2777 130.49 56.5381 129.985C56.7985 129.464 57.1729 129.049 57.6611 128.74C58.1494 128.415 58.8086 128.252 59.6387 128.252C60.4688 128.252 61.1279 128.415 61.6162 128.74C62.1045 129.049 62.4788 129.464 62.7393 129.985C62.9997 130.49 63.1624 131.068 63.2275 131.719C63.3089 132.37 63.3496 133.037 63.3496 133.721V147.197C63.3496 147.881 63.3089 148.556 63.2275 149.223C63.1624 149.874 62.9997 150.46 62.7393 150.981C62.4788 151.486 62.1045 151.893 61.6162 152.202C61.1279 152.511 60.4688 152.666 59.6387 152.666C58.8086 152.666 58.1494 152.511 57.6611 152.202C57.1729 151.893 56.7985 151.486 56.5381 150.981C56.2777 150.46 56.1068 149.874 56.0254 149.223C55.9603 148.556 55.9277 147.881 55.9277 147.197V133.721ZM63.3984 122.197C63.3984 123.45 63.0729 124.386 62.4219 125.005C61.7708 125.607 60.8594 125.908 59.6875 125.908C58.5156 125.908 57.6042 125.607 56.9531 125.005C56.3021 124.386 55.9766 123.45 55.9766 122.197C55.9766 120.895 56.3021 119.951 56.9531 119.365C57.6042 118.779 58.5156 118.486 59.6875 118.486C60.9408 118.486 61.8685 118.779 62.4707 119.365C63.0892 119.951 63.3984 120.895 63.3984 122.197ZM83.75 128.252V123.955C83.75 123.271 83.7826 122.604 83.8477 121.953C83.929 121.302 84.0999 120.724 84.3604 120.22C84.6208 119.699 84.9951 119.284 85.4834 118.974C85.9717 118.649 86.6309 118.486 87.4609 118.486C88.2747 118.486 88.9258 118.649 89.4141 118.974C89.9023 119.284 90.2686 119.699 90.5127 120.22C90.7731 120.724 90.9359 121.302 91.001 121.953C91.0824 122.604 91.123 123.271 91.123 123.955V128.252H93.125C93.5482 128.252 93.9714 128.276 94.3945 128.325C94.8177 128.358 95.1921 128.471 95.5176 128.667C95.8594 128.862 96.1279 129.155 96.3232 129.546C96.5348 129.936 96.6406 130.482 96.6406 131.181C96.6406 131.849 96.5348 132.378 96.3232 132.768C96.1279 133.159 95.8594 133.452 95.5176 133.647C95.1921 133.843 94.8177 133.973 94.3945 134.038C93.9714 134.087 93.5482 134.111 93.125 134.111H91.123V142.656C91.123 142.982 91.1312 143.332 91.1475 143.706C91.18 144.064 91.2695 144.398 91.416 144.707C91.5625 145.016 91.7822 145.277 92.0752 145.488C92.3682 145.683 92.7832 145.781 93.3203 145.781C93.9062 145.781 94.4027 145.83 94.8096 145.928C95.2327 146.009 95.5745 146.164 95.835 146.391C96.1117 146.619 96.3151 146.937 96.4453 147.344C96.5755 147.75 96.6406 148.271 96.6406 148.906C96.6406 149.557 96.486 150.119 96.1768 150.591C95.8838 151.063 95.485 151.453 94.9805 151.763C94.4759 152.072 93.89 152.3 93.2227 152.446C92.5553 152.593 91.8555 152.666 91.123 152.666C89.9674 152.666 88.9746 152.544 88.1445 152.3C87.3307 152.055 86.6471 151.714 86.0938 151.274C85.5566 150.819 85.1253 150.281 84.7998 149.663C84.4906 149.028 84.2546 148.32 84.0918 147.539C83.9453 146.758 83.8477 145.919 83.7988 145.024C83.7663 144.113 83.75 143.161 83.75 142.168V134.111H82.3828C81.9596 134.111 81.5365 134.087 81.1133 134.038C80.7064 133.973 80.3402 133.843 80.0146 133.647C79.6891 133.452 79.4206 133.159 79.209 132.768C79.0137 132.378 78.916 131.849 78.916 131.181C78.916 130.482 79.0137 129.936 79.209 129.546C79.4206 129.155 79.6891 128.862 80.0146 128.667C80.3402 128.471 80.7064 128.358 81.1133 128.325C81.5365 128.276 81.9596 128.252 82.3828 128.252H83.75ZM131.543 138.75C131.543 139.01 131.527 139.319 131.494 139.678C131.462 140.019 131.331 140.353 131.104 140.679C130.892 140.988 130.55 141.256 130.078 141.484C129.606 141.712 128.939 141.826 128.076 141.826H118.359V144.17C118.359 144.56 118.408 144.967 118.506 145.39C118.604 145.814 118.766 146.204 118.994 146.562C119.238 146.92 119.556 147.213 119.946 147.441C120.337 147.669 120.817 147.783 121.387 147.783C122.038 147.783 122.534 147.71 122.876 147.563C123.234 147.401 123.511 147.205 123.706 146.977C123.918 146.749 124.105 146.505 124.268 146.245C124.43 145.985 124.642 145.74 124.902 145.513C125.179 145.285 125.553 145.097 126.025 144.951C126.514 144.788 127.181 144.707 128.027 144.707C128.434 144.707 128.825 144.739 129.199 144.805C129.59 144.87 129.932 144.992 130.225 145.171C130.518 145.35 130.754 145.602 130.933 145.928C131.112 146.237 131.201 146.644 131.201 147.148C131.201 148.206 130.868 149.093 130.2 149.809C129.533 150.509 128.695 151.071 127.686 151.494C126.676 151.917 125.578 152.218 124.39 152.397C123.218 152.576 122.119 152.666 121.094 152.666C119.743 152.65 118.457 152.479 117.236 152.153C116.016 151.828 114.933 151.307 113.989 150.591C113.062 149.874 112.321 148.939 111.768 147.783C111.214 146.627 110.938 145.211 110.938 143.535V137.822C110.938 136.276 111.117 134.966 111.475 133.891C111.849 132.817 112.329 131.922 112.915 131.206C113.501 130.49 114.16 129.936 114.893 129.546C115.625 129.139 116.366 128.838 117.114 128.642C117.863 128.447 118.571 128.325 119.238 128.276C119.922 128.227 120.508 128.203 120.996 128.203C122.64 128.203 124.04 128.349 125.195 128.642C126.367 128.935 127.344 129.318 128.125 129.79C128.906 130.262 129.525 130.807 129.98 131.426C130.436 132.044 130.778 132.687 131.006 133.354C131.234 134.005 131.38 134.673 131.445 135.356C131.51 136.024 131.543 136.65 131.543 137.236V138.75ZM118.359 138.164H124.463C124.463 137.399 124.438 136.723 124.39 136.138C124.357 135.535 124.235 135.031 124.023 134.624C123.828 134.217 123.511 133.908 123.071 133.696C122.648 133.485 122.038 133.379 121.24 133.379C120.573 133.379 120.044 133.485 119.653 133.696C119.279 133.908 118.994 134.176 118.799 134.502C118.604 134.811 118.481 135.145 118.433 135.503C118.384 135.861 118.359 136.178 118.359 136.455V138.164ZM162.393 131.914C162.393 133.183 162.075 134.111 161.44 134.697C160.822 135.283 159.935 135.576 158.779 135.576C158.617 135.576 158.381 135.592 158.071 135.625C157.778 135.641 157.461 135.706 157.119 135.82C156.777 135.918 156.427 136.072 156.069 136.284C155.728 136.479 155.41 136.756 155.117 137.114C154.824 137.456 154.588 137.895 154.409 138.432C154.23 138.97 154.141 139.612 154.141 140.361V147.344C154.141 148.011 154.1 148.662 154.019 149.297C153.953 149.931 153.791 150.501 153.53 151.006C153.27 151.494 152.896 151.893 152.407 152.202C151.919 152.511 151.26 152.666 150.43 152.666C149.616 152.666 148.973 152.511 148.501 152.202C148.029 151.893 147.663 151.494 147.402 151.006C147.158 150.501 146.995 149.931 146.914 149.297C146.849 148.662 146.816 148.011 146.816 147.344V133.672C146.816 132.988 146.849 132.329 146.914 131.694C146.995 131.043 147.158 130.465 147.402 129.961C147.663 129.456 148.029 129.057 148.501 128.764C148.973 128.455 149.616 128.301 150.43 128.301C151.26 128.301 151.895 128.488 152.334 128.862C152.79 129.22 153.123 129.692 153.335 130.278C153.547 130.848 153.669 131.491 153.701 132.207C153.734 132.907 153.75 133.59 153.75 134.258H154.141C154.368 133.346 154.67 132.524 155.044 131.792C155.418 131.043 155.833 130.416 156.289 129.912C156.745 129.391 157.233 128.992 157.754 128.716C158.275 128.439 158.796 128.301 159.316 128.301C159.951 128.301 160.464 128.374 160.854 128.52C161.261 128.651 161.579 128.862 161.807 129.155C162.035 129.448 162.189 129.822 162.271 130.278C162.352 130.734 162.393 131.279 162.393 131.914ZM195.195 147.148C195.195 147.832 195.171 148.507 195.122 149.175C195.073 149.826 194.927 150.412 194.683 150.932C194.438 151.453 194.072 151.876 193.584 152.202C193.096 152.511 192.412 152.666 191.533 152.666C190.638 152.666 189.938 152.519 189.434 152.226C188.929 151.917 188.555 151.551 188.311 151.128C188.066 150.688 187.912 150.233 187.847 149.761C187.798 149.289 187.773 148.89 187.773 148.564C187.627 149.036 187.415 149.516 187.139 150.005C186.878 150.493 186.536 150.932 186.113 151.323C185.69 151.714 185.177 152.039 184.575 152.3C183.989 152.544 183.298 152.666 182.5 152.666C181.605 152.666 180.71 152.519 179.814 152.226C178.919 151.933 178.114 151.445 177.397 150.762C176.681 150.078 176.095 149.191 175.64 148.1C175.2 146.994 174.98 145.635 174.98 144.023V136.943C174.98 135.316 175.2 133.957 175.64 132.866C176.095 131.759 176.681 130.872 177.397 130.205C178.114 129.521 178.919 129.033 179.814 128.74C180.71 128.447 181.605 128.301 182.5 128.301C183.298 128.301 183.989 128.423 184.575 128.667C185.177 128.911 185.69 129.228 186.113 129.619C186.536 130.01 186.878 130.449 187.139 130.937C187.415 131.426 187.627 131.914 187.773 132.402C187.773 131.588 187.887 130.913 188.115 130.376C188.343 129.839 188.636 129.416 188.994 129.106C189.352 128.781 189.751 128.561 190.19 128.447C190.646 128.317 191.094 128.252 191.533 128.252C192.347 128.252 192.998 128.415 193.486 128.74C193.975 129.049 194.341 129.464 194.585 129.985C194.845 130.49 195.008 131.084 195.073 131.767C195.155 132.435 195.195 133.118 195.195 133.818V147.148ZM182.5 143.388C182.5 143.828 182.516 144.259 182.549 144.682C182.581 145.106 182.671 145.488 182.817 145.83C182.964 146.172 183.175 146.448 183.452 146.66C183.745 146.855 184.144 146.953 184.648 146.953C185.283 146.953 185.796 146.815 186.187 146.538C186.593 146.245 186.911 145.805 187.139 145.22C187.367 144.617 187.521 143.869 187.603 142.973C187.7 142.062 187.757 140.98 187.773 139.726C187.773 139.222 187.725 138.644 187.627 137.993C187.546 137.326 187.391 136.699 187.163 136.113C186.935 135.527 186.618 135.031 186.211 134.624C185.804 134.217 185.283 134.013 184.648 134.013C184.144 134.013 183.745 134.119 183.452 134.331C183.175 134.526 182.964 134.787 182.817 135.112C182.671 135.438 182.581 135.812 182.549 136.235C182.516 136.642 182.5 137.057 182.5 137.48V143.388Z" fill="#849CDE"/>
</svg>
